<svg width="24" height="24" viewBox="0 0 24 24" fill="none" xmlns="http://www.w3.org/2000/svg">
<path d="M3 17.0001C2.73478 17.0001 2.48043 16.8947 2.29289 16.7072C2.10536 16.5197 2 16.2653 2 16.0001C2 15.7349 2.10536 15.4805 2.29289 15.293C2.48043 15.1055 2.73478 15.0001 3 15.0001H13.5C14.5 15.0001 15.5 17.0001 15 17.0001H3ZM17 17.0001C16.7348 17.0001 16.4804 16.8947 16.2929 16.7072C16.1054 16.5197 16 16.2653 16 16.0001C16 15.7349 16.1054 15.4805 16.2929 15.293C16.4804 15.1055 16.7348 15.0001 17 15.0001H21C21.2652 15.0001 21.5196 15.1055 21.7071 15.293C21.8946 15.4805 22 15.7349 22 16.0001C22 16.2653 21.8946 16.5197 21.7071 16.7072C21.5196 16.8947 21.2652 17.0001 21 17.0001H17ZM12.633 3.5011C12.7653 3.27116 12.9836 3.10321 13.2398 3.0342C13.496 2.96518 13.7691 3.00076 13.999 3.1331C14.2289 3.26545 14.3969 3.48371 14.4659 3.73989C14.5349 3.99606 14.4993 4.26916 14.367 4.4991L7.46 16.4951C7.39454 16.609 7.30729 16.7088 7.20324 16.7889C7.09918 16.8691 6.98037 16.9279 6.85357 16.9622C6.72677 16.9964 6.59447 17.0053 6.46423 16.9884C6.33399 16.9715 6.20836 16.9291 6.0945 16.8636C5.98064 16.7981 5.8808 16.7109 5.80066 16.6068C5.72052 16.5028 5.66166 16.384 5.62745 16.2572C5.59323 16.1304 5.58432 15.9981 5.60123 15.8678C5.61814 15.7376 5.66054 15.612 5.726 15.4981L12.633 3.5011ZM4 18.5001C4.5 17.5001 7.5 16.5001 6.5 18.2201C5.95742 19.1478 5.41308 20.0745 4.867 21.0001C4.73466 21.23 4.51639 21.398 4.26022 21.467C4.00404 21.536 3.73094 21.5004 3.501 21.3681C3.27106 21.2358 3.10311 21.0175 3.03409 20.7613C2.96508 20.5051 3.00066 20.232 3.133 20.0021L4 18.5001ZM9.133 4.4991C9.00066 4.26916 8.96508 3.99606 9.03409 3.73989C9.10311 3.48371 9.27106 3.26545 9.501 3.1331C9.73094 3.00076 10.004 2.96518 10.2602 3.0342C10.5164 3.10321 10.7347 3.27116 10.867 3.5011L12.61 6.5301C12.6776 6.64398 12.7219 6.77016 12.7404 6.90131C12.7588 7.03246 12.751 7.16597 12.7175 7.29408C12.6839 7.4222 12.6252 7.54237 12.5448 7.64762C12.4644 7.75287 12.3639 7.84111 12.2492 7.9072C12.1344 7.97329 12.0077 8.01593 11.8763 8.03264C11.7449 8.04934 11.6115 8.03978 11.4838 8.00452C11.3562 7.96925 11.2368 7.90897 11.1326 7.82719C11.0285 7.7454 10.9416 7.64374 10.877 7.5281L9.133 4.4991ZM13 11.5001C12.102 10.0001 13 7.0001 13.716 8.4961L20.366 20.0001C20.4942 20.2297 20.5268 20.5005 20.4568 20.7539C20.3867 21.0073 20.2197 21.223 19.9919 21.3542C19.7641 21.4854 19.4937 21.5216 19.2394 21.4549C18.9851 21.3883 18.7672 21.2242 18.633 20.9981L13 11.5001Z" fill="black"/>
</svg>
