<svg width="24" height="24" viewBox="0 0 24 24" fill="none" xmlns="http://www.w3.org/2000/svg">
<path d="M3.63708 3.43408L12.3771 12.0051L3.70208 20.6551C3.56015 20.4702 3.44998 20.2631 3.37608 20.0421C3.33786 19.7919 3.33786 19.5373 3.37608 19.2871V4.56708C3.35008 4.17208 3.44108 3.77708 3.63608 3.43408M16.1421 8.26708L13.2891 11.0931L4.65308 2.60008C4.93308 2.50308 5.23308 2.47608 5.52608 2.52208C5.98608 2.64808 6.42508 2.84208 6.82808 3.09508L14.6441 7.42008C15.1521 7.69308 15.6471 7.98008 16.1421 8.26708ZM13.2901 12.9301L16.1291 15.7181L14.0711 16.8641L7.79208 20.3541C7.27208 20.6411 6.75008 20.9151 6.24208 21.2281C6.02471 21.3634 5.78096 21.4508 5.52712 21.4844C5.27328 21.5181 5.01519 21.4971 4.77008 21.4231L13.2901 12.9301ZM20.6501 12.0051C20.6574 12.3548 20.569 12.6998 20.3945 13.0029C20.2201 13.306 19.9661 13.5557 19.6601 13.7251L17.3141 15.0271L14.2271 12.0051L17.3271 8.93108C18.1221 9.37408 18.9041 9.81708 19.6851 10.2341C19.9966 10.4082 20.2524 10.6669 20.423 10.9803C20.5936 11.2937 20.673 11.649 20.6501 12.0051Z" fill="black"/>
</svg>
